<mxfile host="app.diagrams.net" modified="2022-06-24T23:30:23.853Z" agent="5.0 (Windows NT 10.0; Win64; x64) AppleWebKit/537.36 (KHTML, like Gecko) Chrome/102.0.5005.124 Safari/537.36 Edg/102.0.1245.44" etag="maTuiQrpftCIxq9CJyQd" version="20.0.1" type="github">
  <diagram id="C5RBs43oDa-KdzZeNtuy" name="Page-1">
    <mxGraphModel dx="1573" dy="638" grid="1" gridSize="10" guides="1" tooltips="1" connect="1" arrows="1" fold="1" page="1" pageScale="1" pageWidth="827" pageHeight="1169" math="0" shadow="0">
      <root>
        <mxCell id="WIyWlLk6GJQsqaUBKTNV-0" />
        <mxCell id="WIyWlLk6GJQsqaUBKTNV-1" parent="WIyWlLk6GJQsqaUBKTNV-0" />
        <mxCell id="Zi9LIRQCBly2Rpeok-5_-23" value="Eleve" style="swimlane;fontStyle=1;align=center;verticalAlign=top;childLayout=stackLayout;horizontal=1;startSize=26;horizontalStack=0;resizeParent=1;resizeParentMax=0;resizeLast=0;collapsible=1;marginBottom=0;" parent="WIyWlLk6GJQsqaUBKTNV-1" vertex="1">
          <mxGeometry x="10" y="432" width="260" height="112" as="geometry" />
        </mxCell>
        <mxCell id="Zi9LIRQCBly2Rpeok-5_-32" value="Enseignants: List&lt;Enseignant&gt;" style="text;strokeColor=none;fillColor=none;align=left;verticalAlign=top;spacingLeft=4;spacingRight=4;overflow=hidden;rotatable=0;points=[[0,0.5],[1,0.5]];portConstraint=eastwest;" parent="Zi9LIRQCBly2Rpeok-5_-23" vertex="1">
          <mxGeometry y="26" width="260" height="26" as="geometry" />
        </mxCell>
        <mxCell id="2w14g9TlOuWHbVfkqIbt-16" value="Classes: List&lt;Classe&gt;" style="text;strokeColor=none;fillColor=none;align=left;verticalAlign=top;spacingLeft=4;spacingRight=4;overflow=hidden;rotatable=0;points=[[0,0.5],[1,0.5]];portConstraint=eastwest;" parent="Zi9LIRQCBly2Rpeok-5_-23" vertex="1">
          <mxGeometry y="52" width="260" height="26" as="geometry" />
        </mxCell>
        <mxCell id="Zi9LIRQCBly2Rpeok-5_-25" value="" style="line;strokeWidth=1;fillColor=none;align=left;verticalAlign=middle;spacingTop=-1;spacingLeft=3;spacingRight=3;rotatable=0;labelPosition=right;points=[];portConstraint=eastwest;" parent="Zi9LIRQCBly2Rpeok-5_-23" vertex="1">
          <mxGeometry y="78" width="260" height="8" as="geometry" />
        </mxCell>
        <mxCell id="Zi9LIRQCBly2Rpeok-5_-34" value="ValiderQuestionnaire()" style="text;strokeColor=none;fillColor=none;align=left;verticalAlign=top;spacingLeft=4;spacingRight=4;overflow=hidden;rotatable=0;points=[[0,0.5],[1,0.5]];portConstraint=eastwest;" parent="Zi9LIRQCBly2Rpeok-5_-23" vertex="1">
          <mxGeometry y="86" width="260" height="26" as="geometry" />
        </mxCell>
        <mxCell id="he9SxElErfdmWkTXxZOx-20" style="edgeStyle=orthogonalEdgeStyle;rounded=0;orthogonalLoop=1;jettySize=auto;html=1;endArrow=block;endFill=0;startSize=8;endSize=13;strokeWidth=1;" parent="WIyWlLk6GJQsqaUBKTNV-1" source="Zi9LIRQCBly2Rpeok-5_-35" edge="1">
          <mxGeometry relative="1" as="geometry">
            <mxPoint x="565" y="280" as="targetPoint" />
            <Array as="points">
              <mxPoint x="565" y="600" />
              <mxPoint x="565" y="600" />
            </Array>
          </mxGeometry>
        </mxCell>
        <mxCell id="8GNOqcExXZPe4n7WPwzI-8" style="edgeStyle=orthogonalEdgeStyle;rounded=0;orthogonalLoop=1;jettySize=auto;html=1;exitX=0.68;exitY=0.013;exitDx=0;exitDy=0;entryX=0.29;entryY=1.007;entryDx=0;entryDy=0;entryPerimeter=0;endArrow=none;endFill=0;exitPerimeter=0;" parent="WIyWlLk6GJQsqaUBKTNV-1" source="Zi9LIRQCBly2Rpeok-5_-35" target="8GNOqcExXZPe4n7WPwzI-5" edge="1">
          <mxGeometry relative="1" as="geometry">
            <Array as="points">
              <mxPoint x="606" y="836" />
            </Array>
          </mxGeometry>
        </mxCell>
        <mxCell id="8GNOqcExXZPe4n7WPwzI-27" style="edgeStyle=orthogonalEdgeStyle;rounded=0;orthogonalLoop=1;jettySize=auto;html=1;exitX=0.75;exitY=0;exitDx=0;exitDy=0;endArrow=none;endFill=0;entryX=0.125;entryY=1.008;entryDx=0;entryDy=0;entryPerimeter=0;" parent="WIyWlLk6GJQsqaUBKTNV-1" source="Zi9LIRQCBly2Rpeok-5_-35" target="8GNOqcExXZPe4n7WPwzI-25" edge="1">
          <mxGeometry relative="1" as="geometry">
            <mxPoint x="740" y="800" as="targetPoint" />
            <Array as="points">
              <mxPoint x="660" y="835" />
              <mxPoint x="660" y="815" />
              <mxPoint x="700" y="815" />
            </Array>
          </mxGeometry>
        </mxCell>
        <mxCell id="Zi9LIRQCBly2Rpeok-5_-35" value="Enseignant" style="swimlane;fontStyle=1;align=center;verticalAlign=top;childLayout=stackLayout;horizontal=1;startSize=26;horizontalStack=0;resizeParent=1;resizeParentMax=0;resizeLast=0;collapsible=1;marginBottom=0;" parent="WIyWlLk6GJQsqaUBKTNV-1" vertex="1">
          <mxGeometry x="440" y="835" width="230" height="60" as="geometry" />
        </mxCell>
        <mxCell id="2w14g9TlOuWHbVfkqIbt-33" value="Classes: Liste&lt;Classe&gt;" style="text;strokeColor=none;fillColor=none;align=left;verticalAlign=top;spacingLeft=4;spacingRight=4;overflow=hidden;rotatable=0;points=[[0,0.5],[1,0.5]];portConstraint=eastwest;" parent="Zi9LIRQCBly2Rpeok-5_-35" vertex="1">
          <mxGeometry y="26" width="230" height="26" as="geometry" />
        </mxCell>
        <mxCell id="Zi9LIRQCBly2Rpeok-5_-37" value="" style="line;strokeWidth=1;fillColor=none;align=left;verticalAlign=middle;spacingTop=-1;spacingLeft=3;spacingRight=3;rotatable=0;labelPosition=right;points=[];portConstraint=eastwest;" parent="Zi9LIRQCBly2Rpeok-5_-35" vertex="1">
          <mxGeometry y="52" width="230" height="8" as="geometry" />
        </mxCell>
        <mxCell id="Zi9LIRQCBly2Rpeok-5_-46" value="Classe" style="swimlane;fontStyle=1;align=center;verticalAlign=top;childLayout=stackLayout;horizontal=1;startSize=26;horizontalStack=0;resizeParent=1;resizeParentMax=0;resizeLast=0;collapsible=1;marginBottom=0;" parent="WIyWlLk6GJQsqaUBKTNV-1" vertex="1">
          <mxGeometry x="10" y="813" width="180" height="104" as="geometry" />
        </mxCell>
        <mxCell id="Zi9LIRQCBly2Rpeok-5_-51" value="IdClass: string" style="text;strokeColor=none;fillColor=none;align=left;verticalAlign=top;spacingLeft=4;spacingRight=4;overflow=hidden;rotatable=0;points=[[0,0.5],[1,0.5]];portConstraint=eastwest;" parent="Zi9LIRQCBly2Rpeok-5_-46" vertex="1">
          <mxGeometry y="26" width="180" height="26" as="geometry" />
        </mxCell>
        <mxCell id="2w14g9TlOuWHbVfkqIbt-21" value="Enseignants: Liste&lt;Enseignant&gt;" style="text;strokeColor=none;fillColor=none;align=left;verticalAlign=top;spacingLeft=4;spacingRight=4;overflow=hidden;rotatable=0;points=[[0,0.5],[1,0.5]];portConstraint=eastwest;" parent="Zi9LIRQCBly2Rpeok-5_-46" vertex="1">
          <mxGeometry y="52" width="180" height="26" as="geometry" />
        </mxCell>
        <mxCell id="Zi9LIRQCBly2Rpeok-5_-52" value="Eleves: Liste&lt;Eleve&gt;" style="text;strokeColor=none;fillColor=none;align=left;verticalAlign=top;spacingLeft=4;spacingRight=4;overflow=hidden;rotatable=0;points=[[0,0.5],[1,0.5]];portConstraint=eastwest;" parent="Zi9LIRQCBly2Rpeok-5_-46" vertex="1">
          <mxGeometry y="78" width="180" height="26" as="geometry" />
        </mxCell>
        <mxCell id="8GNOqcExXZPe4n7WPwzI-7" style="edgeStyle=orthogonalEdgeStyle;rounded=0;orthogonalLoop=1;jettySize=auto;html=1;endArrow=none;endFill=0;exitX=0.091;exitY=0.995;exitDx=0;exitDy=0;exitPerimeter=0;" parent="WIyWlLk6GJQsqaUBKTNV-1" source="Zi9LIRQCBly2Rpeok-5_-69" target="8GNOqcExXZPe4n7WPwzI-3" edge="1">
          <mxGeometry relative="1" as="geometry">
            <mxPoint x="665" y="710" as="sourcePoint" />
          </mxGeometry>
        </mxCell>
        <mxCell id="Zi9LIRQCBly2Rpeok-5_-55" value="Direction" style="swimlane;fontStyle=1;align=center;verticalAlign=top;childLayout=stackLayout;horizontal=1;startSize=26;horizontalStack=0;resizeParent=1;resizeParentMax=0;resizeLast=0;collapsible=1;marginBottom=0;" parent="WIyWlLk6GJQsqaUBKTNV-1" vertex="1">
          <mxGeometry x="610" y="630" width="160" height="60" as="geometry" />
        </mxCell>
        <mxCell id="Zi9LIRQCBly2Rpeok-5_-57" value="" style="line;strokeWidth=1;fillColor=none;align=left;verticalAlign=middle;spacingTop=-1;spacingLeft=3;spacingRight=3;rotatable=0;labelPosition=right;points=[];portConstraint=eastwest;" parent="Zi9LIRQCBly2Rpeok-5_-55" vertex="1">
          <mxGeometry y="26" width="160" height="8" as="geometry" />
        </mxCell>
        <mxCell id="Zi9LIRQCBly2Rpeok-5_-69" value="CreerUtilisateur()" style="text;strokeColor=none;fillColor=none;align=left;verticalAlign=top;spacingLeft=4;spacingRight=4;overflow=hidden;rotatable=0;points=[[0,0.5],[1,0.5]];portConstraint=eastwest;" parent="Zi9LIRQCBly2Rpeok-5_-55" vertex="1">
          <mxGeometry y="34" width="160" height="26" as="geometry" />
        </mxCell>
        <mxCell id="Zi9LIRQCBly2Rpeok-5_-73" value="Question" style="swimlane;fontStyle=1;align=center;verticalAlign=top;childLayout=stackLayout;horizontal=1;startSize=26;horizontalStack=0;resizeParent=1;resizeParentMax=0;resizeLast=0;collapsible=1;marginBottom=0;" parent="WIyWlLk6GJQsqaUBKTNV-1" vertex="1">
          <mxGeometry x="355" y="634" width="170" height="138" as="geometry" />
        </mxCell>
        <mxCell id="Zi9LIRQCBly2Rpeok-5_-74" value="IdQuestion: int" style="text;strokeColor=none;fillColor=none;align=left;verticalAlign=top;spacingLeft=4;spacingRight=4;overflow=hidden;rotatable=0;points=[[0,0.5],[1,0.5]];portConstraint=eastwest;" parent="Zi9LIRQCBly2Rpeok-5_-73" vertex="1">
          <mxGeometry y="26" width="170" height="26" as="geometry" />
        </mxCell>
        <mxCell id="Zi9LIRQCBly2Rpeok-5_-78" value="Question: string" style="text;strokeColor=none;fillColor=none;align=left;verticalAlign=top;spacingLeft=4;spacingRight=4;overflow=hidden;rotatable=0;points=[[0,0.5],[1,0.5]];portConstraint=eastwest;" parent="Zi9LIRQCBly2Rpeok-5_-73" vertex="1">
          <mxGeometry y="52" width="170" height="26" as="geometry" />
        </mxCell>
        <mxCell id="Zi9LIRQCBly2Rpeok-5_-77" value="QuestionType: QuestionType" style="text;strokeColor=none;fillColor=none;align=left;verticalAlign=top;spacingLeft=4;spacingRight=4;overflow=hidden;rotatable=0;points=[[0,0.5],[1,0.5]];portConstraint=eastwest;" parent="Zi9LIRQCBly2Rpeok-5_-73" vertex="1">
          <mxGeometry y="78" width="170" height="26" as="geometry" />
        </mxCell>
        <mxCell id="Zi9LIRQCBly2Rpeok-5_-75" value="" style="line;strokeWidth=1;fillColor=none;align=left;verticalAlign=middle;spacingTop=-1;spacingLeft=3;spacingRight=3;rotatable=0;labelPosition=right;points=[];portConstraint=eastwest;" parent="Zi9LIRQCBly2Rpeok-5_-73" vertex="1">
          <mxGeometry y="104" width="170" height="8" as="geometry" />
        </mxCell>
        <mxCell id="Zi9LIRQCBly2Rpeok-5_-76" value="AfficherQuestion()" style="text;strokeColor=none;fillColor=none;align=left;verticalAlign=top;spacingLeft=4;spacingRight=4;overflow=hidden;rotatable=0;points=[[0,0.5],[1,0.5]];portConstraint=eastwest;" parent="Zi9LIRQCBly2Rpeok-5_-73" vertex="1">
          <mxGeometry y="112" width="170" height="26" as="geometry" />
        </mxCell>
        <mxCell id="Zi9LIRQCBly2Rpeok-5_-86" value="ReponsesEleve" style="swimlane;fontStyle=1;align=center;verticalAlign=top;childLayout=stackLayout;horizontal=1;startSize=26;horizontalStack=0;resizeParent=1;resizeParentMax=0;resizeLast=0;collapsible=1;marginBottom=0;" parent="WIyWlLk6GJQsqaUBKTNV-1" vertex="1">
          <mxGeometry x="370" y="380" width="170" height="164" as="geometry" />
        </mxCell>
        <mxCell id="Zi9LIRQCBly2Rpeok-5_-87" value="IdReponseEleve: int" style="text;strokeColor=none;fillColor=none;align=left;verticalAlign=top;spacingLeft=4;spacingRight=4;overflow=hidden;rotatable=0;points=[[0,0.5],[1,0.5]];portConstraint=eastwest;" parent="Zi9LIRQCBly2Rpeok-5_-86" vertex="1">
          <mxGeometry y="26" width="170" height="26" as="geometry" />
        </mxCell>
        <mxCell id="Zi9LIRQCBly2Rpeok-5_-94" value="IdQuestionnaire: int" style="text;strokeColor=none;fillColor=none;align=left;verticalAlign=top;spacingLeft=4;spacingRight=4;overflow=hidden;rotatable=0;points=[[0,0.5],[1,0.5]];portConstraint=eastwest;" parent="Zi9LIRQCBly2Rpeok-5_-86" vertex="1">
          <mxGeometry y="52" width="170" height="26" as="geometry" />
        </mxCell>
        <mxCell id="Zi9LIRQCBly2Rpeok-5_-93" value="IdQuestion: int" style="text;strokeColor=none;fillColor=none;align=left;verticalAlign=top;spacingLeft=4;spacingRight=4;overflow=hidden;rotatable=0;points=[[0,0.5],[1,0.5]];portConstraint=eastwest;" parent="Zi9LIRQCBly2Rpeok-5_-86" vertex="1">
          <mxGeometry y="78" width="170" height="26" as="geometry" />
        </mxCell>
        <mxCell id="Zi9LIRQCBly2Rpeok-5_-92" value="QuestionType: QuestionType" style="text;strokeColor=none;fillColor=none;align=left;verticalAlign=top;spacingLeft=4;spacingRight=4;overflow=hidden;rotatable=0;points=[[0,0.5],[1,0.5]];portConstraint=eastwest;" parent="Zi9LIRQCBly2Rpeok-5_-86" vertex="1">
          <mxGeometry y="104" width="170" height="26" as="geometry" />
        </mxCell>
        <mxCell id="N0oLhz5LSdT8tA_xuro_-25" value="Reponse: string" style="text;strokeColor=none;fillColor=none;align=left;verticalAlign=top;spacingLeft=4;spacingRight=4;overflow=hidden;rotatable=0;points=[[0,0.5],[1,0.5]];portConstraint=eastwest;" parent="Zi9LIRQCBly2Rpeok-5_-86" vertex="1">
          <mxGeometry y="130" width="170" height="26" as="geometry" />
        </mxCell>
        <mxCell id="Zi9LIRQCBly2Rpeok-5_-88" value="" style="line;strokeWidth=1;fillColor=none;align=left;verticalAlign=middle;spacingTop=-1;spacingLeft=3;spacingRight=3;rotatable=0;labelPosition=right;points=[];portConstraint=eastwest;" parent="Zi9LIRQCBly2Rpeok-5_-86" vertex="1">
          <mxGeometry y="156" width="170" height="8" as="geometry" />
        </mxCell>
        <mxCell id="Zi9LIRQCBly2Rpeok-5_-98" value="" style="endArrow=none;html=1;rounded=0;entryX=0;entryY=0.5;entryDx=0;entryDy=0;exitX=1.001;exitY=0.368;exitDx=0;exitDy=0;exitPerimeter=0;" parent="WIyWlLk6GJQsqaUBKTNV-1" target="2w14g9TlOuWHbVfkqIbt-33" edge="1" source="2w14g9TlOuWHbVfkqIbt-21">
          <mxGeometry width="50" height="50" relative="1" as="geometry">
            <mxPoint x="240" y="875" as="sourcePoint" />
            <mxPoint x="530" y="849" as="targetPoint" />
          </mxGeometry>
        </mxCell>
        <mxCell id="he9SxElErfdmWkTXxZOx-0" value="&lt;&lt; enumeration &gt;&gt;&#xa;Fonction" style="swimlane;fontStyle=1;align=center;verticalAlign=top;childLayout=stackLayout;horizontal=1;startSize=40;horizontalStack=0;resizeParent=1;resizeParentMax=0;resizeLast=0;collapsible=1;marginBottom=0;" parent="WIyWlLk6GJQsqaUBKTNV-1" vertex="1">
          <mxGeometry x="270" y="118" width="160" height="118" as="geometry" />
        </mxCell>
        <mxCell id="he9SxElErfdmWkTXxZOx-1" value="Direction" style="text;strokeColor=none;fillColor=none;align=left;verticalAlign=top;spacingLeft=4;spacingRight=4;overflow=hidden;rotatable=0;points=[[0,0.5],[1,0.5]];portConstraint=eastwest;" parent="he9SxElErfdmWkTXxZOx-0" vertex="1">
          <mxGeometry y="40" width="160" height="26" as="geometry" />
        </mxCell>
        <mxCell id="he9SxElErfdmWkTXxZOx-5" value="Enseignants" style="text;strokeColor=none;fillColor=none;align=left;verticalAlign=top;spacingLeft=4;spacingRight=4;overflow=hidden;rotatable=0;points=[[0,0.5],[1,0.5]];portConstraint=eastwest;" parent="he9SxElErfdmWkTXxZOx-0" vertex="1">
          <mxGeometry y="66" width="160" height="26" as="geometry" />
        </mxCell>
        <mxCell id="he9SxElErfdmWkTXxZOx-4" value="Eleves" style="text;strokeColor=none;fillColor=none;align=left;verticalAlign=top;spacingLeft=4;spacingRight=4;overflow=hidden;rotatable=0;points=[[0,0.5],[1,0.5]];portConstraint=eastwest;" parent="he9SxElErfdmWkTXxZOx-0" vertex="1">
          <mxGeometry y="92" width="160" height="26" as="geometry" />
        </mxCell>
        <mxCell id="he9SxElErfdmWkTXxZOx-8" value="" style="endArrow=none;html=1;rounded=0;entryX=0.25;entryY=0;entryDx=0;entryDy=0;" parent="WIyWlLk6GJQsqaUBKTNV-1" target="Zi9LIRQCBly2Rpeok-5_-55" edge="1">
          <mxGeometry width="50" height="50" relative="1" as="geometry">
            <mxPoint x="560" y="310" as="sourcePoint" />
            <mxPoint x="610" y="290" as="targetPoint" />
            <Array as="points">
              <mxPoint x="740" y="310" />
              <mxPoint x="740" y="540" />
              <mxPoint x="650" y="540" />
            </Array>
          </mxGeometry>
        </mxCell>
        <mxCell id="he9SxElErfdmWkTXxZOx-9" value="" style="endArrow=none;html=1;rounded=0;startSize=8;endSize=13;strokeWidth=1;exitX=0.5;exitY=0;exitDx=0;exitDy=0;" parent="WIyWlLk6GJQsqaUBKTNV-1" source="Zi9LIRQCBly2Rpeok-5_-23" edge="1">
          <mxGeometry width="50" height="50" relative="1" as="geometry">
            <mxPoint x="540" y="340" as="sourcePoint" />
            <mxPoint x="570" y="310" as="targetPoint" />
            <Array as="points">
              <mxPoint x="140" y="310" />
            </Array>
          </mxGeometry>
        </mxCell>
        <mxCell id="2w14g9TlOuWHbVfkqIbt-2" value="Questionnaire" style="swimlane;fontStyle=1;align=center;verticalAlign=top;childLayout=stackLayout;horizontal=1;startSize=26;horizontalStack=0;resizeParent=1;resizeParentMax=0;resizeLast=0;collapsible=1;marginBottom=0;strokeWidth=1;" parent="WIyWlLk6GJQsqaUBKTNV-1" vertex="1">
          <mxGeometry x="115" y="660" width="160" height="112" as="geometry" />
        </mxCell>
        <mxCell id="2w14g9TlOuWHbVfkqIbt-3" value="IdQuestionnaire" style="text;strokeColor=none;fillColor=none;align=left;verticalAlign=top;spacingLeft=4;spacingRight=4;overflow=hidden;rotatable=0;points=[[0,0.5],[1,0.5]];portConstraint=eastwest;" parent="2w14g9TlOuWHbVfkqIbt-2" vertex="1">
          <mxGeometry y="26" width="160" height="26" as="geometry" />
        </mxCell>
        <mxCell id="N0oLhz5LSdT8tA_xuro_-23" value="NomQuestionnaire: string" style="text;strokeColor=none;fillColor=none;align=left;verticalAlign=top;spacingLeft=4;spacingRight=4;overflow=hidden;rotatable=0;points=[[0,0.5],[1,0.5]];portConstraint=eastwest;" parent="2w14g9TlOuWHbVfkqIbt-2" vertex="1">
          <mxGeometry y="52" width="160" height="26" as="geometry" />
        </mxCell>
        <mxCell id="2w14g9TlOuWHbVfkqIbt-4" value="" style="line;strokeWidth=1;fillColor=none;align=left;verticalAlign=middle;spacingTop=-1;spacingLeft=3;spacingRight=3;rotatable=0;labelPosition=right;points=[];portConstraint=eastwest;" parent="2w14g9TlOuWHbVfkqIbt-2" vertex="1">
          <mxGeometry y="78" width="160" height="8" as="geometry" />
        </mxCell>
        <mxCell id="8GNOqcExXZPe4n7WPwzI-43" value="AfficherQuestionnaire()" style="text;strokeColor=none;fillColor=none;align=left;verticalAlign=top;spacingLeft=4;spacingRight=4;overflow=hidden;rotatable=0;points=[[0,0.5],[1,0.5]];portConstraint=eastwest;" parent="2w14g9TlOuWHbVfkqIbt-2" vertex="1">
          <mxGeometry y="86" width="160" height="26" as="geometry" />
        </mxCell>
        <mxCell id="2w14g9TlOuWHbVfkqIbt-6" value="" style="endArrow=diamondThin;endFill=1;endSize=24;html=1;rounded=0;" parent="WIyWlLk6GJQsqaUBKTNV-1" edge="1">
          <mxGeometry width="160" relative="1" as="geometry">
            <mxPoint x="355" y="700" as="sourcePoint" />
            <mxPoint x="275" y="700" as="targetPoint" />
          </mxGeometry>
        </mxCell>
        <mxCell id="2w14g9TlOuWHbVfkqIbt-9" value="0..*" style="text;html=1;align=center;verticalAlign=middle;resizable=0;points=[];autosize=1;strokeColor=none;fillColor=none;" parent="WIyWlLk6GJQsqaUBKTNV-1" vertex="1">
          <mxGeometry x="100" y="792" width="30" height="20" as="geometry" />
        </mxCell>
        <mxCell id="2w14g9TlOuWHbVfkqIbt-10" value="0..*" style="text;html=1;align=center;verticalAlign=middle;resizable=0;points=[];autosize=1;strokeColor=none;fillColor=none;" parent="WIyWlLk6GJQsqaUBKTNV-1" vertex="1">
          <mxGeometry x="190" y="855" width="30" height="20" as="geometry" />
        </mxCell>
        <mxCell id="2w14g9TlOuWHbVfkqIbt-11" value="1..*" style="text;html=1;align=center;verticalAlign=middle;resizable=0;points=[];autosize=1;strokeColor=none;fillColor=none;" parent="WIyWlLk6GJQsqaUBKTNV-1" vertex="1">
          <mxGeometry x="410" y="855" width="30" height="20" as="geometry" />
        </mxCell>
        <mxCell id="2w14g9TlOuWHbVfkqIbt-12" value="0..*" style="text;html=1;align=center;verticalAlign=middle;resizable=0;points=[];autosize=1;strokeColor=none;fillColor=none;" parent="WIyWlLk6GJQsqaUBKTNV-1" vertex="1">
          <mxGeometry x="270" y="465" width="30" height="20" as="geometry" />
        </mxCell>
        <mxCell id="2w14g9TlOuWHbVfkqIbt-13" value="1" style="text;html=1;align=center;verticalAlign=middle;resizable=0;points=[];autosize=1;strokeColor=none;fillColor=none;" parent="WIyWlLk6GJQsqaUBKTNV-1" vertex="1">
          <mxGeometry x="350" y="465" width="20" height="20" as="geometry" />
        </mxCell>
        <mxCell id="2w14g9TlOuWHbVfkqIbt-14" value="1..*" style="text;html=1;align=center;verticalAlign=middle;resizable=0;points=[];autosize=1;strokeColor=none;fillColor=none;" parent="WIyWlLk6GJQsqaUBKTNV-1" vertex="1">
          <mxGeometry x="275" y="670" width="30" height="20" as="geometry" />
        </mxCell>
        <mxCell id="2w14g9TlOuWHbVfkqIbt-15" value="1" style="text;html=1;align=center;verticalAlign=middle;resizable=0;points=[];autosize=1;strokeColor=none;fillColor=none;" parent="WIyWlLk6GJQsqaUBKTNV-1" vertex="1">
          <mxGeometry x="330" y="670" width="20" height="20" as="geometry" />
        </mxCell>
        <mxCell id="2w14g9TlOuWHbVfkqIbt-17" value="" style="endArrow=none;html=1;rounded=0;exitX=0.131;exitY=0.966;exitDx=0;exitDy=0;entryX=0.55;entryY=1.041;entryDx=0;entryDy=0;entryPerimeter=0;exitPerimeter=0;" parent="WIyWlLk6GJQsqaUBKTNV-1" source="2w14g9TlOuWHbVfkqIbt-18" target="Zi9LIRQCBly2Rpeok-5_-34" edge="1">
          <mxGeometry width="50" height="50" relative="1" as="geometry">
            <mxPoint x="290" y="690" as="sourcePoint" />
            <mxPoint x="219.82000000000016" y="570.6240000000003" as="targetPoint" />
          </mxGeometry>
        </mxCell>
        <mxCell id="2w14g9TlOuWHbVfkqIbt-18" value="0..*" style="text;html=1;align=center;verticalAlign=middle;resizable=0;points=[];autosize=1;strokeColor=none;fillColor=none;" parent="WIyWlLk6GJQsqaUBKTNV-1" vertex="1">
          <mxGeometry x="150" y="640" width="30" height="20" as="geometry" />
        </mxCell>
        <mxCell id="2w14g9TlOuWHbVfkqIbt-19" value="0..*" style="text;html=1;align=center;verticalAlign=middle;resizable=0;points=[];autosize=1;strokeColor=none;fillColor=none;" parent="WIyWlLk6GJQsqaUBKTNV-1" vertex="1">
          <mxGeometry x="150" y="544" width="30" height="20" as="geometry" />
        </mxCell>
        <mxCell id="2w14g9TlOuWHbVfkqIbt-22" value="&lt;&lt; enumeration &gt;&gt;&#xa;QuestionType" style="swimlane;fontStyle=1;align=center;verticalAlign=top;childLayout=stackLayout;horizontal=1;startSize=42;horizontalStack=0;resizeParent=1;resizeParentMax=0;resizeLast=0;collapsible=1;marginBottom=0;strokeWidth=1;" parent="WIyWlLk6GJQsqaUBKTNV-1" vertex="1">
          <mxGeometry x="70" y="40" width="160" height="250" as="geometry" />
        </mxCell>
        <mxCell id="2w14g9TlOuWHbVfkqIbt-23" value="ComboBox" style="text;strokeColor=none;fillColor=none;align=left;verticalAlign=top;spacingLeft=4;spacingRight=4;overflow=hidden;rotatable=0;points=[[0,0.5],[1,0.5]];portConstraint=eastwest;" parent="2w14g9TlOuWHbVfkqIbt-22" vertex="1">
          <mxGeometry y="42" width="160" height="26" as="geometry" />
        </mxCell>
        <mxCell id="2w14g9TlOuWHbVfkqIbt-29" value="CheckBox" style="text;strokeColor=none;fillColor=none;align=left;verticalAlign=top;spacingLeft=4;spacingRight=4;overflow=hidden;rotatable=0;points=[[0,0.5],[1,0.5]];portConstraint=eastwest;" parent="2w14g9TlOuWHbVfkqIbt-22" vertex="1">
          <mxGeometry y="68" width="160" height="26" as="geometry" />
        </mxCell>
        <mxCell id="2w14g9TlOuWHbVfkqIbt-27" value="DragAndDrop" style="text;strokeColor=none;fillColor=none;align=left;verticalAlign=top;spacingLeft=4;spacingRight=4;overflow=hidden;rotatable=0;points=[[0,0.5],[1,0.5]];portConstraint=eastwest;" parent="2w14g9TlOuWHbVfkqIbt-22" vertex="1">
          <mxGeometry y="94" width="160" height="26" as="geometry" />
        </mxCell>
        <mxCell id="2w14g9TlOuWHbVfkqIbt-26" value="TextBox" style="text;strokeColor=none;fillColor=none;align=left;verticalAlign=top;spacingLeft=4;spacingRight=4;overflow=hidden;rotatable=0;points=[[0,0.5],[1,0.5]];portConstraint=eastwest;" parent="2w14g9TlOuWHbVfkqIbt-22" vertex="1">
          <mxGeometry y="120" width="160" height="26" as="geometry" />
        </mxCell>
        <mxCell id="2w14g9TlOuWHbVfkqIbt-30" value="RichTextBox" style="text;strokeColor=none;fillColor=none;align=left;verticalAlign=top;spacingLeft=4;spacingRight=4;overflow=hidden;rotatable=0;points=[[0,0.5],[1,0.5]];portConstraint=eastwest;" parent="2w14g9TlOuWHbVfkqIbt-22" vertex="1">
          <mxGeometry y="146" width="160" height="26" as="geometry" />
        </mxCell>
        <mxCell id="2w14g9TlOuWHbVfkqIbt-31" value="Slider" style="text;strokeColor=none;fillColor=none;align=left;verticalAlign=top;spacingLeft=4;spacingRight=4;overflow=hidden;rotatable=0;points=[[0,0.5],[1,0.5]];portConstraint=eastwest;" parent="2w14g9TlOuWHbVfkqIbt-22" vertex="1">
          <mxGeometry y="172" width="160" height="26" as="geometry" />
        </mxCell>
        <mxCell id="N0oLhz5LSdT8tA_xuro_-22" value="RadioButton" style="text;strokeColor=none;fillColor=none;align=left;verticalAlign=top;spacingLeft=4;spacingRight=4;overflow=hidden;rotatable=0;points=[[0,0.5],[1,0.5]];portConstraint=eastwest;" parent="2w14g9TlOuWHbVfkqIbt-22" vertex="1">
          <mxGeometry y="198" width="160" height="26" as="geometry" />
        </mxCell>
        <mxCell id="8GNOqcExXZPe4n7WPwzI-2" value="Slider" style="text;strokeColor=none;fillColor=none;align=left;verticalAlign=top;spacingLeft=4;spacingRight=4;overflow=hidden;rotatable=0;points=[[0,0.5],[1,0.5]];portConstraint=eastwest;" parent="2w14g9TlOuWHbVfkqIbt-22" vertex="1">
          <mxGeometry y="224" width="160" height="26" as="geometry" />
        </mxCell>
        <mxCell id="N0oLhz5LSdT8tA_xuro_-0" value="1..*" style="text;html=1;align=center;verticalAlign=middle;resizable=0;points=[];autosize=1;strokeColor=none;fillColor=none;" parent="WIyWlLk6GJQsqaUBKTNV-1" vertex="1">
          <mxGeometry x="100" y="550" width="30" height="20" as="geometry" />
        </mxCell>
        <mxCell id="N0oLhz5LSdT8tA_xuro_-3" value="&lt;&lt; abstract &gt;&gt;&#xa;Utilisateur" style="swimlane;fontStyle=3;align=center;verticalAlign=top;childLayout=stackLayout;horizontal=1;startSize=40;horizontalStack=0;resizeParent=1;resizeParentMax=0;resizeLast=0;collapsible=1;marginBottom=0;" parent="WIyWlLk6GJQsqaUBKTNV-1" vertex="1">
          <mxGeometry x="490" y="20" width="160" height="256" as="geometry" />
        </mxCell>
        <mxCell id="N0oLhz5LSdT8tA_xuro_-4" value="IdUtilisateur: int" style="text;strokeColor=none;fillColor=none;align=left;verticalAlign=top;spacingLeft=4;spacingRight=4;overflow=hidden;rotatable=0;points=[[0,0.5],[1,0.5]];portConstraint=eastwest;" parent="N0oLhz5LSdT8tA_xuro_-3" vertex="1">
          <mxGeometry y="40" width="160" height="26" as="geometry" />
        </mxCell>
        <mxCell id="he9SxElErfdmWkTXxZOx-11" value="Nom: string" style="text;strokeColor=none;fillColor=none;align=left;verticalAlign=top;spacingLeft=4;spacingRight=4;overflow=hidden;rotatable=0;points=[[0,0.5],[1,0.5]];portConstraint=eastwest;" parent="N0oLhz5LSdT8tA_xuro_-3" vertex="1">
          <mxGeometry y="66" width="160" height="26" as="geometry" />
        </mxCell>
        <mxCell id="he9SxElErfdmWkTXxZOx-16" value="Prenom: string" style="text;strokeColor=none;fillColor=none;align=left;verticalAlign=top;spacingLeft=4;spacingRight=4;overflow=hidden;rotatable=0;points=[[0,0.5],[1,0.5]];portConstraint=eastwest;" parent="N0oLhz5LSdT8tA_xuro_-3" vertex="1">
          <mxGeometry y="92" width="160" height="26" as="geometry" />
        </mxCell>
        <mxCell id="N0oLhz5LSdT8tA_xuro_-1" value="email: string" style="text;strokeColor=none;fillColor=none;align=left;verticalAlign=top;spacingLeft=4;spacingRight=4;overflow=hidden;rotatable=0;points=[[0,0.5],[1,0.5]];portConstraint=eastwest;" parent="N0oLhz5LSdT8tA_xuro_-3" vertex="1">
          <mxGeometry y="118" width="160" height="26" as="geometry" />
        </mxCell>
        <mxCell id="he9SxElErfdmWkTXxZOx-14" value="Fonction: Fonction" style="text;strokeColor=none;fillColor=none;align=left;verticalAlign=top;spacingLeft=4;spacingRight=4;overflow=hidden;rotatable=0;points=[[0,0.5],[1,0.5]];portConstraint=eastwest;" parent="N0oLhz5LSdT8tA_xuro_-3" vertex="1">
          <mxGeometry y="144" width="160" height="26" as="geometry" />
        </mxCell>
        <mxCell id="he9SxElErfdmWkTXxZOx-15" value="DtNaissance: DateTime" style="text;strokeColor=none;fillColor=none;align=left;verticalAlign=top;spacingLeft=4;spacingRight=4;overflow=hidden;rotatable=0;points=[[0,0.5],[1,0.5]];portConstraint=eastwest;" parent="N0oLhz5LSdT8tA_xuro_-3" vertex="1">
          <mxGeometry y="170" width="160" height="26" as="geometry" />
        </mxCell>
        <mxCell id="N0oLhz5LSdT8tA_xuro_-2" value="Password: string" style="text;strokeColor=none;fillColor=none;align=left;verticalAlign=top;spacingLeft=4;spacingRight=4;overflow=hidden;rotatable=0;points=[[0,0.5],[1,0.5]];portConstraint=eastwest;" parent="N0oLhz5LSdT8tA_xuro_-3" vertex="1">
          <mxGeometry y="196" width="160" height="26" as="geometry" />
        </mxCell>
        <mxCell id="N0oLhz5LSdT8tA_xuro_-5" value="" style="line;strokeWidth=1;fillColor=none;align=left;verticalAlign=middle;spacingTop=-1;spacingLeft=3;spacingRight=3;rotatable=0;labelPosition=right;points=[];portConstraint=eastwest;" parent="N0oLhz5LSdT8tA_xuro_-3" vertex="1">
          <mxGeometry y="222" width="160" height="8" as="geometry" />
        </mxCell>
        <mxCell id="N0oLhz5LSdT8tA_xuro_-6" value="Connexion()" style="text;strokeColor=none;fillColor=none;align=left;verticalAlign=top;spacingLeft=4;spacingRight=4;overflow=hidden;rotatable=0;points=[[0,0.5],[1,0.5]];portConstraint=eastwest;" parent="N0oLhz5LSdT8tA_xuro_-3" vertex="1">
          <mxGeometry y="230" width="160" height="26" as="geometry" />
        </mxCell>
        <mxCell id="N0oLhz5LSdT8tA_xuro_-20" value="" style="rounded=0;orthogonalLoop=1;jettySize=auto;html=1;entryX=0.5;entryY=0;entryDx=0;entryDy=0;endArrow=none;endFill=0;exitX=0.346;exitY=1.069;exitDx=0;exitDy=0;exitPerimeter=0;" parent="WIyWlLk6GJQsqaUBKTNV-1" source="Zi9LIRQCBly2Rpeok-5_-34" target="Zi9LIRQCBly2Rpeok-5_-46" edge="1">
          <mxGeometry relative="1" as="geometry">
            <mxPoint x="151.17999999999984" y="570.9099999999999" as="sourcePoint" />
          </mxGeometry>
        </mxCell>
        <mxCell id="sEYmlVfHwyHl0va8u9Fq-0" value="" style="endArrow=diamondThin;endFill=1;endSize=24;html=1;rounded=0;exitX=-0.006;exitY=0.226;exitDx=0;exitDy=0;exitPerimeter=0;entryX=1.004;entryY=0.303;entryDx=0;entryDy=0;entryPerimeter=0;" parent="WIyWlLk6GJQsqaUBKTNV-1" source="Zi9LIRQCBly2Rpeok-5_-92" target="2w14g9TlOuWHbVfkqIbt-16" edge="1">
          <mxGeometry width="160" relative="1" as="geometry">
            <mxPoint x="350" y="500.52" as="sourcePoint" />
            <mxPoint x="270" y="500.52" as="targetPoint" />
          </mxGeometry>
        </mxCell>
        <mxCell id="8GNOqcExXZPe4n7WPwzI-3" value="Print" style="swimlane;fontStyle=1;childLayout=stackLayout;horizontal=1;startSize=26;fillColor=none;horizontalStack=0;resizeParent=1;resizeParentMax=0;resizeLast=0;collapsible=1;marginBottom=0;" parent="WIyWlLk6GJQsqaUBKTNV-1" vertex="1">
          <mxGeometry x="580" y="740" width="90" height="52" as="geometry" />
        </mxCell>
        <mxCell id="8GNOqcExXZPe4n7WPwzI-5" value="Imprimer()" style="text;strokeColor=none;fillColor=none;align=left;verticalAlign=top;spacingLeft=4;spacingRight=4;overflow=hidden;rotatable=0;points=[[0,0.5],[1,0.5]];portConstraint=eastwest;" parent="8GNOqcExXZPe4n7WPwzI-3" vertex="1">
          <mxGeometry y="26" width="90" height="26" as="geometry" />
        </mxCell>
        <mxCell id="8GNOqcExXZPe4n7WPwzI-28" style="edgeStyle=orthogonalEdgeStyle;rounded=0;orthogonalLoop=1;jettySize=auto;html=1;entryX=1.003;entryY=0.133;entryDx=0;entryDy=0;entryPerimeter=0;endArrow=none;endFill=0;" parent="WIyWlLk6GJQsqaUBKTNV-1" source="8GNOqcExXZPe4n7WPwzI-17" target="2w14g9TlOuWHbVfkqIbt-33" edge="1">
          <mxGeometry relative="1" as="geometry" />
        </mxCell>
        <mxCell id="8GNOqcExXZPe4n7WPwzI-17" value="EditerReponses" style="swimlane;fontStyle=1;align=center;verticalAlign=top;childLayout=stackLayout;horizontal=1;startSize=26;horizontalStack=0;resizeParent=1;resizeParentMax=0;resizeLast=0;collapsible=1;marginBottom=0;" parent="WIyWlLk6GJQsqaUBKTNV-1" vertex="1">
          <mxGeometry x="690" y="835" width="180" height="60" as="geometry">
            <mxRectangle x="760" y="835" width="120" height="26" as="alternateBounds" />
          </mxGeometry>
        </mxCell>
        <mxCell id="8GNOqcExXZPe4n7WPwzI-19" value="" style="line;strokeWidth=1;fillColor=none;align=left;verticalAlign=middle;spacingTop=-1;spacingLeft=3;spacingRight=3;rotatable=0;labelPosition=right;points=[];portConstraint=eastwest;" parent="8GNOqcExXZPe4n7WPwzI-17" vertex="1">
          <mxGeometry y="26" width="180" height="8" as="geometry" />
        </mxCell>
        <mxCell id="8GNOqcExXZPe4n7WPwzI-20" value="Modifier/SupprimerReponses()" style="text;strokeColor=none;fillColor=none;align=left;verticalAlign=top;spacingLeft=4;spacingRight=4;overflow=hidden;rotatable=0;points=[[0,0.5],[1,0.5]];portConstraint=eastwest;" parent="8GNOqcExXZPe4n7WPwzI-17" vertex="1">
          <mxGeometry y="34" width="180" height="26" as="geometry" />
        </mxCell>
        <mxCell id="8GNOqcExXZPe4n7WPwzI-21" style="edgeStyle=orthogonalEdgeStyle;rounded=0;orthogonalLoop=1;jettySize=auto;html=1;entryX=0.75;entryY=0;entryDx=0;entryDy=0;endArrow=none;endFill=0;exitX=0.875;exitY=1.006;exitDx=0;exitDy=0;exitPerimeter=0;" parent="WIyWlLk6GJQsqaUBKTNV-1" source="Zi9LIRQCBly2Rpeok-5_-69" target="8GNOqcExXZPe4n7WPwzI-17" edge="1">
          <mxGeometry relative="1" as="geometry">
            <mxPoint x="790" y="680" as="sourcePoint" />
            <Array as="points">
              <mxPoint x="750" y="720" />
              <mxPoint x="860" y="720" />
              <mxPoint x="860" y="835" />
            </Array>
          </mxGeometry>
        </mxCell>
        <mxCell id="8GNOqcExXZPe4n7WPwzI-26" style="edgeStyle=orthogonalEdgeStyle;rounded=0;orthogonalLoop=1;jettySize=auto;html=1;exitX=0.25;exitY=0;exitDx=0;exitDy=0;endArrow=none;endFill=0;entryX=0.688;entryY=1.003;entryDx=0;entryDy=0;entryPerimeter=0;" parent="WIyWlLk6GJQsqaUBKTNV-1" source="8GNOqcExXZPe4n7WPwzI-22" target="Zi9LIRQCBly2Rpeok-5_-69" edge="1">
          <mxGeometry relative="1" as="geometry">
            <mxPoint x="760" y="680" as="targetPoint" />
            <Array as="points">
              <mxPoint x="720" y="690" />
            </Array>
          </mxGeometry>
        </mxCell>
        <mxCell id="8GNOqcExXZPe4n7WPwzI-22" value="ConsulterReponses" style="swimlane;fontStyle=1;align=center;verticalAlign=top;childLayout=stackLayout;horizontal=1;startSize=26;horizontalStack=0;resizeParent=1;resizeParentMax=0;resizeLast=0;collapsible=1;marginBottom=0;" parent="WIyWlLk6GJQsqaUBKTNV-1" vertex="1">
          <mxGeometry x="680" y="736" width="160" height="60" as="geometry" />
        </mxCell>
        <mxCell id="8GNOqcExXZPe4n7WPwzI-24" value="" style="line;strokeWidth=1;fillColor=none;align=left;verticalAlign=middle;spacingTop=-1;spacingLeft=3;spacingRight=3;rotatable=0;labelPosition=right;points=[];portConstraint=eastwest;" parent="8GNOqcExXZPe4n7WPwzI-22" vertex="1">
          <mxGeometry y="26" width="160" height="8" as="geometry" />
        </mxCell>
        <mxCell id="8GNOqcExXZPe4n7WPwzI-25" value="ConsulterReponses()" style="text;strokeColor=none;fillColor=none;align=left;verticalAlign=top;spacingLeft=4;spacingRight=4;overflow=hidden;rotatable=0;points=[[0,0.5],[1,0.5]];portConstraint=eastwest;" parent="8GNOqcExXZPe4n7WPwzI-22" vertex="1">
          <mxGeometry y="34" width="160" height="26" as="geometry" />
        </mxCell>
        <mxCell id="8GNOqcExXZPe4n7WPwzI-33" value="GestionUtilisateur" style="swimlane;fontStyle=1;align=center;verticalAlign=top;childLayout=stackLayout;horizontal=1;startSize=26;horizontalStack=0;resizeParent=1;resizeParentMax=0;resizeLast=0;collapsible=1;marginBottom=0;" parent="WIyWlLk6GJQsqaUBKTNV-1" vertex="1">
          <mxGeometry x="570" y="465" width="160" height="60" as="geometry" />
        </mxCell>
        <mxCell id="8GNOqcExXZPe4n7WPwzI-35" value="" style="line;strokeWidth=1;fillColor=none;align=left;verticalAlign=middle;spacingTop=-1;spacingLeft=3;spacingRight=3;rotatable=0;labelPosition=right;points=[];portConstraint=eastwest;" parent="8GNOqcExXZPe4n7WPwzI-33" vertex="1">
          <mxGeometry y="26" width="160" height="8" as="geometry" />
        </mxCell>
        <mxCell id="8GNOqcExXZPe4n7WPwzI-36" value="EditerUtilisateur()" style="text;strokeColor=none;fillColor=none;align=left;verticalAlign=top;spacingLeft=4;spacingRight=4;overflow=hidden;rotatable=0;points=[[0,0.5],[1,0.5]];portConstraint=eastwest;" parent="8GNOqcExXZPe4n7WPwzI-33" vertex="1">
          <mxGeometry y="34" width="160" height="26" as="geometry" />
        </mxCell>
        <mxCell id="8GNOqcExXZPe4n7WPwzI-56" value="Assignation" style="swimlane;fontStyle=1;align=center;verticalAlign=top;childLayout=stackLayout;horizontal=1;startSize=26;horizontalStack=0;resizeParent=1;resizeParentMax=0;resizeLast=0;collapsible=1;marginBottom=0;" parent="WIyWlLk6GJQsqaUBKTNV-1" vertex="1">
          <mxGeometry x="670" y="550" width="210" height="60" as="geometry" />
        </mxCell>
        <mxCell id="8GNOqcExXZPe4n7WPwzI-58" value="" style="line;strokeWidth=1;fillColor=none;align=left;verticalAlign=middle;spacingTop=-1;spacingLeft=3;spacingRight=3;rotatable=0;labelPosition=right;points=[];portConstraint=eastwest;" parent="8GNOqcExXZPe4n7WPwzI-56" vertex="1">
          <mxGeometry y="26" width="210" height="8" as="geometry" />
        </mxCell>
        <mxCell id="8GNOqcExXZPe4n7WPwzI-59" value="Assigner/Eleve/Enseignant/Classe()" style="text;strokeColor=none;fillColor=none;align=left;verticalAlign=top;spacingLeft=4;spacingRight=4;overflow=hidden;rotatable=0;points=[[0,0.5],[1,0.5]];portConstraint=eastwest;" parent="8GNOqcExXZPe4n7WPwzI-56" vertex="1">
          <mxGeometry y="34" width="210" height="26" as="geometry" />
        </mxCell>
        <mxCell id="8GNOqcExXZPe4n7WPwzI-60" value="" style="endArrow=none;html=1;rounded=0;exitX=0.115;exitY=-0.012;exitDx=0;exitDy=0;exitPerimeter=0;entryX=0.361;entryY=1.035;entryDx=0;entryDy=0;entryPerimeter=0;" parent="WIyWlLk6GJQsqaUBKTNV-1" source="Zi9LIRQCBly2Rpeok-5_-55" target="8GNOqcExXZPe4n7WPwzI-36" edge="1">
          <mxGeometry width="50" height="50" relative="1" as="geometry">
            <mxPoint x="570" y="710" as="sourcePoint" />
            <mxPoint x="763" y="530" as="targetPoint" />
          </mxGeometry>
        </mxCell>
        <mxCell id="8GNOqcExXZPe4n7WPwzI-62" value="" style="endArrow=none;html=1;rounded=0;exitX=0.689;exitY=1.004;exitDx=0;exitDy=0;exitPerimeter=0;entryX=1;entryY=0.25;entryDx=0;entryDy=0;" parent="WIyWlLk6GJQsqaUBKTNV-1" source="8GNOqcExXZPe4n7WPwzI-59" target="Zi9LIRQCBly2Rpeok-5_-55" edge="1">
          <mxGeometry width="50" height="50" relative="1" as="geometry">
            <mxPoint x="570" y="710" as="sourcePoint" />
            <mxPoint x="620" y="660" as="targetPoint" />
            <Array as="points">
              <mxPoint x="815" y="645" />
            </Array>
          </mxGeometry>
        </mxCell>
      </root>
    </mxGraphModel>
  </diagram>
</mxfile>
